<svg version="1.2" baseProfile="tiny-ps" xmlns="http://www.w3.org/2000/svg" viewBox="0 0 10 12" width="10" height="12">
	<title>Web 1920 – 4</title>
	<style>
		tspan { white-space:pre }
		.shp0 { fill: #373737 } 
		.shp1 { fill: #00bf62 } 
	</style>
	<g id="Web 1920 – 4">
		<g id="Header">
			<g id="bell">
				<g id="Сгруппировать 10">
					<g id="Сгруппировать 9">
						<path id="Контур 17" class="shp0" d="M3.57 10.49C3.57 10.5 3.57 10.5 3.57 10.5C3.57 11.21 4.14 11.78 4.85 11.78C5.55 11.78 6.12 11.21 6.12 10.5C6.12 10.5 6.12 10.5 6.12 10.49L3.57 10.49Z" />
						<path id="Контур 18" class="shp0" d="M8.93 8.9L7.78 7.21C7.78 6.69 7.78 5.42 7.78 5.1C7.78 3.68 6.76 2.49 5.42 2.22L5.42 1.57C5.42 1.26 5.16 1 4.85 1C4.53 1 4.27 1.26 4.27 1.57L4.27 2.22C2.93 2.49 1.92 3.68 1.92 5.1C1.92 5.65 1.92 6.88 1.92 7.21L0.77 8.9C0.64 9.07 0.63 9.3 0.73 9.49C0.83 9.68 1.03 9.8 1.25 9.8L8.45 9.8C8.66 9.8 8.86 9.68 8.96 9.49C9.06 9.3 9.05 9.07 8.93 8.9Z" />
					</g>
				</g>
				<path id="Эллипс 143" class="shp1" d="M7.25 6C6.28 6 5.5 5.22 5.5 4.25C5.5 3.28 6.28 2.5 7.25 2.5C8.22 2.5 9 3.28 9 4.25C9 5.22 8.22 6 7.25 6Z" />
			</g>
		</g>
	</g>
</svg>