<svg version="1.2" baseProfile="tiny-ps" xmlns="http://www.w3.org/2000/svg" viewBox="0 0 10 12" width="10" height="12">
	<title>Web 1920 – 4</title>
	<style>
		tspan { white-space:pre }
		.shp0 { fill: #373737 } 
	</style>
	<g id="Web 1920 – 4">
		<g id="Header">
			<g id="icon">
				<g id="blogger">
					<g id="Сгруппировать 85">
						<g id="Сгруппировать 84">
							<path id="Контур 215" class="shp0" d="M5.05 0C4.18 0 3.47 0.71 3.47 1.58C3.47 2.45 4.18 3.16 5.05 3.16C5.93 3.16 6.64 2.45 6.64 1.58C6.64 0.71 5.93 0 5.05 0Z" />
						</g>
					</g>
					<g id="Сгруппировать 87">
						<g id="Сгруппировать 86">
							<path id="Контур 216" fill-rule="evenodd" class="shp0" d="M9.65 6.4L9.25 10.71C9.23 10.88 9.07 11.02 8.87 11.02L1.23 11.02C1.04 11.02 0.87 10.88 0.86 10.71L0.46 6.4C0.45 6.31 0.48 6.22 0.55 6.15C0.62 6.08 0.72 6.04 0.83 6.04L9.28 6.04C9.38 6.04 9.48 6.08 9.55 6.15C9.62 6.22 9.66 6.31 9.65 6.4ZM5.43 8.53C5.43 8.44 5.39 8.35 5.32 8.29C5.25 8.23 5.15 8.19 5.05 8.19C4.95 8.19 4.86 8.23 4.79 8.29C4.72 8.35 4.68 8.44 4.68 8.53C4.68 8.62 4.72 8.7 4.79 8.76C4.86 8.83 4.95 8.86 5.05 8.86C5.15 8.86 5.25 8.83 5.32 8.76C5.39 8.7 5.43 8.62 5.43 8.53Z" />
						</g>
					</g>
					<g id="Сгруппировать 89">
						<g id="Сгруппировать 88">
							<path id="Контур 217" class="shp0" d="M5.07 3.62C3.59 3.62 2.33 4.31 1.76 5.29L8.37 5.29C7.81 4.31 6.54 3.62 5.07 3.62Z" />
						</g>
					</g>
				</g>
			</g>
		</g>
	</g>
</svg>