<svg version="1.2" baseProfile="tiny-ps" xmlns="http://www.w3.org/2000/svg" viewBox="0 0 10 10" width="10" height="10">
	<title>Web 1920 – 4</title>
	<style>
		tspan { white-space:pre }
		.shp0 { fill: #373737 } 
	</style>
	<g id="Web 1920 – 4">
		<g id="Header">
			<g id="icon">
				<g id="calendar">
					<path id="Контур 213" class="shp0" d="M9.7 3.43C9.7 2.71 9.7 2.2 9.7 2.16C9.7 1.62 9.33 1.18 8.87 1.18L8.76 1.18L8.76 2.37C8.76 2.55 8.63 2.69 8.48 2.69C8.32 2.69 8.2 2.55 8.2 2.37C8.2 2.01 8.2 1.01 8.2 0.65C8.2 0.47 8.08 0.32 7.92 0.32C7.77 0.32 7.64 0.47 7.64 0.65L7.64 1.18L5.79 1.18L5.79 2.37C5.79 2.55 5.66 2.69 5.51 2.69C5.35 2.69 5.23 2.55 5.23 2.37C5.23 2.01 5.23 1.01 5.23 0.65C5.23 0.47 5.1 0.32 4.95 0.32C4.8 0.32 4.67 0.47 4.67 0.65L4.67 1.18L2.81 1.18L2.81 2.37C2.81 2.55 2.69 2.69 2.54 2.69C2.38 2.69 2.26 2.55 2.26 2.37C2.26 2.01 2.26 1.01 2.26 0.65C2.26 0.47 2.13 0.32 1.98 0.32C1.82 0.32 1.7 0.47 1.7 0.65L1.7 1.18L1.03 1.18C0.57 1.18 0.2 1.62 0.2 2.16L0.2 3.43L9.7 3.43Z" />
					<path id="Контур 214" fill-rule="evenodd" class="shp0" d="M9.7 3.85C9.7 5.83 9.7 8.71 9.7 8.84C9.7 9.35 9.33 9.76 8.87 9.76L1.03 9.76C0.57 9.76 0.2 9.35 0.2 8.84L0.2 3.85C0.29 3.85 9.53 3.85 9.7 3.85ZM3.15 7.81C3.15 7.64 3.02 7.51 2.87 7.51L2.27 7.51C2.12 7.51 2 7.64 2 7.81C2 7.98 2.12 8.12 2.27 8.12L2.87 8.12C3.02 8.12 3.15 7.98 3.15 7.81ZM3.15 6.5C3.15 6.33 3.02 6.19 2.87 6.19L2.27 6.19C2.12 6.19 2 6.33 2 6.5C2 6.67 2.12 6.81 2.27 6.81L2.87 6.81C3.02 6.81 3.15 6.67 3.15 6.5ZM3.15 5.19C3.15 5.02 3.02 4.88 2.87 4.88L2.27 4.88C2.12 4.88 2 5.02 2 5.19C2 5.36 2.12 5.49 2.27 5.49L2.87 5.49C3.02 5.49 3.15 5.36 3.15 5.19ZM5.53 7.81C5.53 7.64 5.4 7.51 5.25 7.51L4.65 7.51C4.5 7.51 4.37 7.64 4.37 7.81C4.37 7.98 4.5 8.12 4.65 8.12L5.25 8.12C5.4 8.12 5.53 7.98 5.53 7.81ZM5.53 6.5C5.53 6.33 5.4 6.19 5.25 6.19L4.65 6.19C4.5 6.19 4.37 6.33 4.37 6.5C4.37 6.67 4.5 6.81 4.65 6.81L5.25 6.81C5.4 6.81 5.53 6.67 5.53 6.5ZM5.53 5.19C5.53 5.02 5.4 4.88 5.25 4.88L4.65 4.88C4.5 4.88 4.37 5.02 4.37 5.19C4.37 5.36 4.5 5.49 4.65 5.49L5.25 5.49C5.4 5.49 5.53 5.36 5.53 5.19ZM7.9 7.81C7.9 7.64 7.78 7.51 7.62 7.51L7.03 7.51C6.88 7.51 6.75 7.64 6.75 7.81C6.75 7.98 6.88 8.12 7.03 8.12L7.62 8.12C7.78 8.12 7.9 7.98 7.9 7.81ZM7.9 6.5C7.9 6.33 7.78 6.19 7.62 6.19L7.03 6.19C6.88 6.19 6.75 6.33 6.75 6.5C6.75 6.67 6.88 6.81 7.03 6.81L7.62 6.81C7.78 6.81 7.9 6.67 7.9 6.5ZM7.9 5.19C7.9 5.02 7.78 4.88 7.62 4.88L7.03 4.88C6.88 4.88 6.75 5.02 6.75 5.19C6.75 5.36 6.88 5.49 7.03 5.49L7.62 5.49C7.78 5.49 7.9 5.36 7.9 5.19Z" />
				</g>
			</g>
		</g>
	</g>
</svg>