<svg version="1.2" baseProfile="tiny-ps" xmlns="http://www.w3.org/2000/svg" viewBox="0 0 12 11" width="12" height="11">
	<title>Web 1920 – 4</title>
	<style>
		tspan { white-space:pre }
		.shp0 { fill: #373737 } 
	</style>
	<g id="Web 1920 – 4">
		<g id="Header">
			<g id="chat-bubble">
				<path id="Эллипс 11" class="shp0" d="M2.34 5.89C2.06 5.89 1.84 5.67 1.84 5.39C1.84 5.11 2.06 4.89 2.34 4.89C2.62 4.89 2.84 5.11 2.84 5.39C2.84 5.67 2.62 5.89 2.34 5.89Z" />
				<path id="Эллипс 12" class="shp0" d="M5.19 5.89C4.91 5.89 4.69 5.67 4.69 5.39C4.69 5.11 4.91 4.89 5.19 4.89C5.47 4.89 5.69 5.11 5.69 5.39C5.69 5.67 5.47 5.89 5.19 5.89Z" />
				<path id="Эллипс 13" class="shp0" d="M8.03 5.89C7.76 5.89 7.53 5.67 7.53 5.39C7.53 5.11 7.76 4.89 8.03 4.89C8.31 4.89 8.54 5.11 8.54 5.39C8.54 5.67 8.31 5.89 8.03 5.89Z" />
				<path id="Контур 19" fill-rule="evenodd" class="shp0" d="M8.37 2.04C9.2 2.04 9.88 2.72 9.88 3.55L9.88 7.23C9.88 8.06 9.2 8.74 8.37 8.74L4.56 8.74C2.05 10.17 2.24 10.08 2.17 10.08C2.08 10.08 2.01 10 2.01 9.91L2.01 8.74C1.17 8.74 0.5 8.06 0.5 7.23L0.5 3.55C0.5 2.72 1.18 2.04 2.01 2.04L8.37 2.04ZM3.18 5.39C3.18 4.93 2.8 4.55 2.34 4.55C1.88 4.55 1.5 4.93 1.5 5.39C1.5 5.85 1.88 6.23 2.34 6.23C2.8 6.23 3.18 5.85 3.18 5.39ZM6.03 5.39C6.03 4.93 5.65 4.55 5.19 4.55C4.73 4.55 4.35 4.93 4.35 5.39C4.35 5.85 4.73 6.23 5.19 6.23C5.65 6.23 6.03 5.85 6.03 5.39ZM8.87 5.39C8.87 4.93 8.5 4.55 8.03 4.55C7.57 4.55 7.2 4.93 7.2 5.39C7.2 5.85 7.57 6.23 8.03 6.23C8.5 6.23 8.87 5.85 8.87 5.39Z" />
				<path id="Контур 20" class="shp0" d="M9.71 0.7L3.35 0.7C2.71 0.7 2.17 1.09 1.95 1.65C1.94 1.68 1.96 1.71 1.99 1.71C2.18 1.7 3.14 1.71 8.37 1.71C9.39 1.71 10.21 2.53 10.21 3.55C10.21 6.49 10.21 7.1 10.21 7.25C10.21 7.28 10.24 7.3 10.27 7.29C10.82 7.07 11.22 6.52 11.22 5.89L11.22 2.21C11.22 1.38 10.54 0.7 9.71 0.7Z" />
			</g>
		</g>
	</g>
</svg>