<svg version="1.2" baseProfile="tiny-ps" xmlns="http://www.w3.org/2000/svg" viewBox="0 0 11 10" width="11" height="10">
	<title>Web 1920 – 4</title>
	<style>
		tspan { white-space:pre }
		.shp0 { fill: #373737 } 
	</style>
	<g id="Web 1920 – 4">
		<g id="comment-white-oval-bubble">
			<path id="Контур 25" fill-rule="evenodd" class="shp0" d="M10.43 3.82C10.43 4.49 10.2 5.11 9.74 5.68C9.28 6.25 8.65 6.7 7.85 7.02C7.06 7.35 6.19 7.52 5.25 7.52C4.98 7.52 4.7 7.5 4.41 7.47C3.65 8.15 2.76 8.61 1.75 8.87C1.56 8.93 1.34 8.97 1.09 9L1.06 9C1 9 0.95 8.98 0.91 8.94C0.86 8.9 0.83 8.85 0.81 8.78L0.81 8.77C0.8 8.76 0.8 8.74 0.81 8.71C0.82 8.67 0.82 8.66 0.82 8.65C0.82 8.64 0.83 8.62 0.85 8.59L0.88 8.54C0.88 8.54 0.9 8.52 0.92 8.49C0.95 8.46 0.97 8.44 0.97 8.44C1 8.41 1.06 8.34 1.15 8.24C1.24 8.14 1.31 8.06 1.35 8.02C1.39 7.98 1.45 7.9 1.53 7.79C1.61 7.68 1.67 7.59 1.72 7.5C1.76 7.41 1.81 7.29 1.87 7.16C1.93 7.02 1.98 6.87 2.02 6.72C1.42 6.37 0.94 5.95 0.59 5.44C0.24 4.94 0.07 4.4 0.07 3.82C0.07 3.15 0.3 2.53 0.76 1.96C1.22 1.39 1.85 0.94 2.65 0.61C3.44 0.28 4.31 0.12 5.25 0.12C6.19 0.12 7.06 0.28 7.85 0.61C8.65 0.94 9.28 1.39 9.74 1.96C10.2 2.53 10.43 3.15 10.43 3.82ZM9.69 3.82C9.69 3.29 9.49 2.8 9.09 2.34C8.68 1.89 8.14 1.53 7.46 1.26C6.77 0.99 6.04 0.86 5.25 0.86C4.46 0.86 3.73 0.99 3.04 1.26C2.36 1.53 1.81 1.89 1.41 2.34C1.01 2.8 0.81 3.29 0.81 3.82C0.81 4.25 0.95 4.66 1.22 5.05C1.5 5.44 1.89 5.78 2.39 6.07L2.89 6.36L2.73 6.91C2.64 7.26 2.51 7.59 2.33 7.91C2.91 7.66 3.45 7.33 3.92 6.92L4.17 6.7L4.5 6.73C4.76 6.76 5.01 6.78 5.25 6.78C6.04 6.78 6.77 6.64 7.46 6.38C8.14 6.11 8.68 5.75 9.09 5.29C9.49 4.84 9.69 4.35 9.69 3.82Z" />
		</g>
	</g>
</svg>