<svg version="1.2" baseProfile="tiny-ps" xmlns="http://www.w3.org/2000/svg" viewBox="0 0 389 22" width="389" height="22">
	<title>Web 1920 – 4</title>
	<style>
		tspan { white-space:pre }
		.shp0 { fill: #00733b } 
		.shp1 { fill: #cdded5 } 
		.shp2 { fill: #ccddd5 } 
	</style>
	<g id="Web 1920 – 4">
		<g id="Header">
			<g id="icon">
				<g id="Сгруппировать 61">
					<path id="Эллипс 9" class="shp0" d="M10.5 20.5C4.97 20.5 0.5 16.03 0.5 10.5C0.5 4.97 4.97 0.5 10.5 0.5C16.03 0.5 20.5 4.97 20.5 10.5C20.5 16.03 16.03 20.5 10.5 20.5Z" />
					<path id="Эллипс 10" class="shp1" d="M56.5 20.5C50.97 20.5 46.5 16.03 46.5 10.5C46.5 4.97 50.97 0.5 56.5 0.5C62.03 0.5 66.5 4.97 66.5 10.5C66.5 16.03 62.03 20.5 56.5 20.5Z" />
					<path id="Эллипс 11" class="shp1" d="M102.5 21C96.97 21 92.5 16.53 92.5 11C92.5 5.47 96.97 1 102.5 1C108.03 1 112.5 5.47 112.5 11C112.5 16.53 108.03 21 102.5 21Z" />
					<path id="Эллипс 12" class="shp2" d="M148.5 21.5C142.97 21.5 138.5 17.03 138.5 11.5C138.5 5.97 142.97 1.5 148.5 1.5C154.03 1.5 158.5 5.97 158.5 11.5C158.5 17.03 154.03 21.5 148.5 21.5Z" />
					<path id="Эллипс 13" class="shp1" d="M195 21.5C189.47 21.5 185 17.03 185 11.5C185 5.97 189.47 1.5 195 1.5C200.53 1.5 205 5.97 205 11.5C205 17.03 200.53 21.5 195 21.5Z" />
					<path id="Эллипс 30" class="shp1" d="M241 21.5C235.47 21.5 231 17.03 231 11.5C231 5.97 235.47 1.5 241 1.5C246.53 1.5 251 5.97 251 11.5C251 17.03 246.53 21.5 241 21.5Z" />
					<path id="Эллипс 31" class="shp1" d="M287 21.5C281.47 21.5 277 17.03 277 11.5C277 5.97 281.47 1.5 287 1.5C292.53 1.5 297 5.97 297 11.5C297 17.03 292.53 21.5 287 21.5Z" />
					<path id="Эллипс 32" class="shp1" d="M333 21.5C327.47 21.5 323 17.03 323 11.5C323 5.97 327.47 1.5 333 1.5C338.53 1.5 343 5.97 343 11.5C343 17.03 338.53 21.5 333 21.5Z" />
					<path id="Эллипс 140" class="shp1" d="M379 21.5C373.47 21.5 369 17.03 369 11.5C369 5.97 373.47 1.5 379 1.5C384.53 1.5 389 5.97 389 11.5C389 17.03 384.53 21.5 379 21.5Z" />
				</g>
			</g>
		</g>
	</g>
</svg>