<svg version="1.2" baseProfile="tiny-ps" xmlns="http://www.w3.org/2000/svg" viewBox="0 0 70 75" width="70" height="75">
	<title>Web 1920 – 4</title>
	<style>
		tspan { white-space:pre }
		.shp0 { opacity: 0.149;fill: #00733b } 
		.shp1 { fill: #edd2b6 } 
		.shp2 { fill: #f4aa79 } 
		.shp3 { fill: #fbb180 } 
		.shp4 { fill: #7b573d } 
		.shp5 { fill: #917663 } 
		.shp6 { fill: #79cfa6 } 
		.shp7 { fill: #0d5279 } 
		.shp8 { fill: #eed3b6 } 
		.shp9 { fill: #0c5075 } 
		.shp10 { fill: #fffdfd } 
		.shp11 { fill: #f99746 } 
		.shp12 { fill: #f3f3f3 } 
		.shp13 { fill: #dddddc } 
		.shp14 { fill: #c0c0c0 } 
		.shp15 { fill: #f9f7f7 } 
		.shp16 { fill: #eabf9b } 
		.shp17 { fill: #fbd864 } 
		.shp18 { fill: #f0b696 } 
		.shp19 { fill: #ffffff } 
	</style>
	<g id="Web 1920 – 4">
		<g id="Слой 2">
			<g id="Layer 3">
				<path id="Контур 174" class="shp0" d="M47.17 26.08L22.6 26.08C10.34 26.08 0.51 34.17 0.51 44.22L0.51 45.45C0.51 55.51 10.34 63.57 22.6 63.57L30.55 63.57L25.56 74.4L44.57 63.57L47.17 63.57C59.43 63.57 69.15 55.51 69.15 45.45L69.15 44.22C69.15 34.17 59.43 26.08 47.17 26.08Z" />
				<path id="Контур 175" class="shp1" d="M41.71 15.24C42.23 15.38 42.62 15.69 42.58 15.94C42.57 15.96 42.57 15.98 42.56 15.99C42.56 15.99 41.22 17.32 42.47 20.31C43.71 23.23 44.4 22.53 44.4 22.53L42.53 22.84C42.53 22.84 40.97 21.19 40.66 20.28C39.93 18.1 40.75 15.52 40.75 15.52C40.75 15.49 41.18 15.1 41.71 15.24Z" />
				<path id="Контур 176" class="shp1" d="M50.83 15.24C50.3 15.38 49.91 15.69 49.96 15.94C49.96 15.96 49.97 15.98 49.97 15.99C49.97 15.99 51.32 17.32 50.06 20.31C48.83 23.23 48.13 22.53 48.13 22.53L50 22.84C50 22.84 51.57 21.19 51.87 20.28C52.6 18.1 51.78 15.52 51.78 15.52C51.78 15.49 51.35 15.1 50.83 15.24Z" />
				<path id="Контур 177" class="shp2" d="M48.84 12.65L48.48 12.26L48.39 12.1L48.22 12.13L48.07 12.37L46.24 15.35L46.24 15.36L46.24 15.35L46.23 15.36L46.23 15.35L44.25 12.13L44.08 12.1L43.51 12.77C43.77 12.75 44.3 11.92 44.36 11.9C44.54 11.81 44.85 11.42 44.9 11.36C45.08 11.13 45.19 10.83 45.25 10.54C45.27 10.44 45.29 10.33 45.3 10.23C45.33 9.94 45.34 9.64 45.31 9.34L47.16 9.34C47.14 9.62 47.14 9.9 47.17 10.18C47.21 10.58 47.32 11.03 47.57 11.36C47.62 11.42 47.93 11.81 48.12 11.9C48.15 11.91 48.27 12.12 48.48 12.15C48.68 12.18 48.72 12.64 48.84 12.65Z" />
				<path id="Эллипс 110" class="shp3" d="M46.38 10.76C44.77 10.76 43.46 9.06 43.46 6.97C43.46 4.87 44.77 3.18 46.38 3.18C48 3.18 49.31 4.87 49.31 6.97C49.31 9.06 48 10.76 46.38 10.76Z" />
				<path id="Контур 178" class="shp4" d="M48.35 2.29C48.35 2.29 48.16 1.65 47.41 1.4C45.15 0.67 43.26 1.54 42.26 3.44C42.22 3.52 42.18 3.61 42.14 3.7C41.59 4.83 41.59 5.98 41.91 7.18C42.24 8.47 42.95 9.63 45.22 10.46C45.22 10.46 43.46 9.51 43.46 6.97C43.46 6.97 43.54 5.99 43.65 5.76L44.66 5.77C44.73 5.57 44.54 5.2 45.08 4.86L45.07 5.75L46.36 5.73C46.36 5.73 46.42 4.99 46.74 4.77C46.74 4.77 46.56 5.27 46.95 5.78L48.02 5.8L47.89 4.51C47.89 4.51 48.65 5.35 48.47 5.75L49.17 5.83C49.17 5.83 49.34 8.98 47.3 10.59C47.3 10.59 49.11 10.4 50.17 7.9C51.23 5.41 50.58 3.86 50.58 3.86C50.58 3.86 49.97 2.13 48.35 2.29Z" />
				<path id="Контур 179" class="shp5" d="M47.68 2.45C47.68 2.45 45.67 1.11 43.84 3.09C43.84 3.09 45.43 1.89 47.68 2.45Z" />
				<path id="Контур 180" class="shp5" d="M46.91 2.62C46.91 2.62 44.55 2.08 43.54 4.58C43.54 4.58 44.6 2.9 46.91 2.62Z" />
				<path id="Контур 181" class="shp5" d="M49.02 2.86C49.02 2.86 50.5 3.65 50.11 5.58C50.11 5.58 50.08 4.23 49.02 2.86Z" />
				<path id="Контур 182" class="shp6" d="M50.01 17.12C50.09 17.54 50.16 17.93 50.2 18.23C50.45 18.21 50.85 18.11 51.28 18.02C51.79 17.92 52.31 17.71 52.54 17.61C51.93 16.31 51.31 13.57 51.28 13.45C51.18 13.11 50.98 12.55 50.36 12.5C50.29 12.46 50.21 12.44 50.13 12.42C49.83 12.37 48.86 12.16 48.29 11.9L48.01 11.77C47.91 12.21 47.41 13.39 46.1 13.41C45.05 13.43 44.59 12.27 44.36 11.82L44.12 12C43.65 12.27 42.78 12.46 42.21 12.58L42.2 12.58C42.13 12.6 42.07 12.62 42 12.66C41.37 12.73 41.19 13.3 41.1 13.64C41.07 13.77 40.57 16.53 40.01 17.85C40.24 17.94 40.76 18.13 41.28 18.21C41.72 18.29 42.11 18.38 42.36 18.38C42.39 18.12 42.43 17.8 42.49 17.45C42.75 18.4 42.91 19.38 42.96 20.36C43.01 21.45 42.76 22.68 42.46 23.64C42.32 24.1 50.02 24.18 49.89 23.73C49.62 22.79 49.39 21.57 49.43 20.54C49.48 19.33 49.72 18.16 50.01 17.12Z" />
				<path id="Контур 183" class="shp7" d="M30.43 27.18C30.43 27.18 30.43 27 30.27 26.75L30.28 26.73L30.24 26.7C30.07 26.45 29.74 26.1 29.16 25.73C28.62 25.32 28.03 25.02 27.9 24.92C27.05 24.32 25.09 23.2 25.09 23.2L17.96 23.2C17.96 23.2 16.27 24.32 15.42 24.92C15.28 25.02 14.7 25.32 14.15 25.73C13.58 26.1 13.24 26.45 13.08 26.7L13.03 26.73L13.04 26.75C12.89 27 12.89 27.18 12.89 27.18C12.62 27.89 13.78 30.09 13.78 30.09L16.85 37.11C18.71 37.39 18.85 36.69 18.85 36.69C18.8 36.28 18.36 33.74 18.36 33.74C17.72 31.11 16.68 29.71 16.18 29C16.12 28.92 16.11 28.82 16.13 28.73C16.16 28.63 16.23 28.56 16.32 28.53C16.69 28.39 17.07 28.24 17.44 28.09C18.74 27.56 19.73 27.08 20.46 26.63L22.86 26.64C22.86 26.65 22.87 26.66 22.89 26.66C23.63 27.1 24.6 27.57 25.87 28.09C26.26 28.25 26.66 28.4 27.04 28.55C27.12 28.58 27.18 28.64 27.21 28.72C27.23 28.8 27.22 28.88 27.18 28.95C26.71 29.65 25.76 31.02 25.11 33.7C25.11 33.7 24.6 36.25 24.55 36.65C24.55 36.65 24.6 37.39 26.46 37.11L29.53 30.09C29.53 30.09 30.7 27.89 30.43 27.18Z" />
				<path id="Контур 184" class="shp8" d="M26.7 36.76C26.7 36.76 26.63 37.97 26.91 38.6L24.7 38.38C24.7 38.38 25.05 37.72 24.7 36.76L26.7 36.76Z" />
				<path id="Контур 185" class="shp8" d="M16.67 36.57C16.67 36.57 16.74 37.77 16.46 38.41L18.67 38.18C18.67 38.18 18.32 37.53 18.67 36.57L16.67 36.57Z" />
				<path id="Контур 186" class="shp9" d="M16.86 38.27C16.7 38.26 16.57 38.22 16.47 38.16C16.41 38.22 16.33 38.3 16.24 38.38C16.23 38.38 16.23 38.38 16.22 38.39C16.16 38.44 16.1 38.5 16.02 38.56C16.02 38.56 16.02 38.56 16.01 38.56C15.99 38.59 15.96 38.61 15.93 38.63C15.92 38.64 15.92 38.64 15.91 38.65C15.85 38.7 15.78 38.75 15.71 38.8L15.67 38.83C15.64 38.85 15.62 38.87 15.59 38.89C15.57 38.9 15.55 38.91 15.53 38.93C15.47 38.97 15.41 39.01 15.35 39.04C15.32 39.06 15.29 39.08 15.27 39.1C15.03 39.25 14.78 39.38 14.52 39.49C14.48 39.51 14.43 39.53 14.39 39.55C13.47 39.9 13.39 40.41 13.42 40.67C13.43 40.73 13.44 40.79 13.46 40.84C13.73 40.97 14.02 41.04 14.31 41.04C16.08 41.08 18.84 40.13 18.84 40.13C18.84 40.13 19.04 39.9 18.97 39.35C18.97 39.33 18.97 39.3 18.96 39.27C18.96 39.24 18.7 38.21 18.61 37.92C18.38 37.99 18.02 38.11 17.36 38.24C17.3 38.25 17.25 38.26 17.2 38.27C17.17 38.27 17.13 38.27 17.11 38.28C17.05 38.28 17 38.28 16.95 38.28L16.92 38.28C16.92 38.28 16.92 38.28 16.92 38.28L16.86 38.27Z" />
				<path id="Контур 187" class="shp9" d="M14.28 40.71C13.98 40.7 13.69 40.63 13.42 40.52C13.41 40.57 13.41 40.62 13.42 40.67C13.42 40.73 13.44 40.79 13.46 40.84C13.73 40.97 14.02 41.03 14.31 41.04C16.08 41.08 18.84 40.13 18.84 40.13C18.84 40.13 18.93 40.02 18.97 39.79C18.25 40.02 15.89 40.74 14.28 40.71Z" />
				<path id="Контур 188" class="shp9" d="M26.52 38.47C26.66 38.46 26.79 38.42 26.9 38.36C26.97 38.42 27.05 38.49 27.14 38.57C27.14 38.58 27.15 38.58 27.15 38.58C27.22 38.64 27.28 38.69 27.36 38.75C27.36 38.75 27.36 38.76 27.36 38.76C27.39 38.78 27.42 38.8 27.45 38.83C27.45 38.83 27.46 38.84 27.47 38.84C27.53 38.89 27.6 38.94 27.67 38.99L27.71 39.02C27.74 39.04 27.76 39.06 27.79 39.08C27.81 39.1 27.83 39.11 27.85 39.12C27.91 39.16 27.96 39.2 28.03 39.24C28.05 39.26 28.08 39.28 28.11 39.3C28.35 39.45 28.6 39.58 28.85 39.69C28.9 39.71 28.94 39.73 28.99 39.75C29.9 40.1 29.99 40.61 29.96 40.87C29.95 40.93 29.94 40.98 29.92 41.04C29.65 41.16 29.36 41.23 29.06 41.24C27.3 41.28 24.54 40.33 24.54 40.33C24.54 40.33 24.34 40.09 24.41 39.55C24.41 39.52 24.41 39.5 24.42 39.47C24.42 39.43 24.67 38.4 24.77 38.11C25 38.19 25.36 38.3 26.02 38.43C26.08 38.45 26.13 38.46 26.18 38.46C26.21 38.47 26.24 38.47 26.27 38.47C26.32 38.48 26.38 38.48 26.43 38.47L26.45 38.47C26.45 38.47 26.46 38.47 26.46 38.47L26.52 38.47Z" />
				<path id="Контур 189" class="shp9" d="M29.1 40.9C29.39 40.89 29.69 40.83 29.96 40.71C29.97 40.76 29.97 40.82 29.96 40.87C29.96 40.93 29.94 40.98 29.92 41.04C29.65 41.16 29.36 41.23 29.07 41.24C27.3 41.28 24.54 40.33 24.54 40.33C24.54 40.33 24.45 40.22 24.41 39.99C25.13 40.22 27.49 40.94 29.1 40.9Z" />
				<path id="Прямоугольник 344" class="shp7" d="M16.67 35.99L18.52 35.99C18.83 35.99 19.08 36.24 19.08 36.55L19.08 36.55C19.08 36.86 18.83 37.1 18.52 37.1L16.67 37.1C16.36 37.1 16.11 36.86 16.11 36.55L16.11 36.55C16.11 36.24 16.36 35.99 16.67 35.99Z" />
				<path id="Прямоугольник 345" class="shp7" d="M26.69 37.14L24.84 37.14C24.53 37.14 24.28 36.89 24.28 36.58L24.28 36.58C24.28 36.27 24.53 36.02 24.84 36.02L26.69 36.02C27 36.02 27.25 36.27 27.25 36.58L27.25 36.58C27.25 36.89 27 37.14 26.69 37.14Z" />
				<path id="Контур 190" class="shp2" d="M25.39 11.93L23.76 11.33C22.54 10.93 22.81 10.23 22.81 10.23L20.28 10.23C20.28 10.23 20.54 10.93 19.33 11.33L17.7 11.93L21.54 12.39L25.39 11.93Z" />
				<path id="Контур 191" class="shp10" d="M19.33 11.19L19.34 11.19L20.05 14.86L20.06 14.88L20.63 17.85L20.84 22.66L22.08 22.66L22.37 18.03L22.98 14.89L23.69 11.22C23.52 11.12 23.33 11.06 23.14 11.02C23.14 11.02 23.28 12.02 21.72 12.06C19.97 12.1 19.95 11.03 19.95 11.03C19.73 11.05 19.52 11.13 19.32 11.19L19.33 11.19L19.33 11.19Z" />
				<path id="Контур 192" class="shp11" d="M28.92 18.38L27.9 14.51C27.24 11.9 23.66 11.19 23.66 11.19L21.5 22.28L19.41 11.16C19.41 11.16 15.75 11.9 15.1 14.51L14.08 18.38C14.08 18.38 13.87 19.16 14.04 20.25C14.11 20.7 14.29 21.14 14.57 21.5L15.4 22.61L17.15 22.22L16.09 20.41C16.09 20.41 16.09 19.66 16.24 19.25L17.15 17.06L17.5 20.56L17.66 23.2L25.34 23.2L25.49 20.55L25.84 17.05L26.75 19.24C26.9 19.66 26.91 20.41 26.91 20.41L25.84 22.22L27.6 22.61L28.43 21.5C28.7 21.14 28.89 20.71 28.96 20.25C29.13 19.16 28.92 18.38 28.92 18.38Z" />
				<path id="Прямоугольник 346" class="shp12" d="M19.09 15L24.22 15C26.63 15 28.58 16.94 28.58 19.35L28.58 19.35C28.58 21.76 26.63 23.71 24.22 23.71L19.09 23.71C16.68 23.71 14.74 21.76 14.74 19.35L14.74 19.35C14.74 16.94 16.68 15 19.09 15Z" />
				<path id="Контур 193" class="shp13" d="M14.85 23.43C14.96 23.61 15.16 23.72 15.37 23.72L27.97 23.72C28.13 23.72 28.29 23.65 28.41 23.53C28.52 23.41 28.59 23.25 28.58 23.09L28.58 15.62C28.59 15.48 28.54 15.34 28.44 15.22L14.85 23.43Z" />
				<path id="Прямоугольник 347" class="shp14" d="M15.06 23.68L28.27 23.68C28.48 23.68 28.66 23.86 28.66 24.07L28.66 24.07C28.66 24.29 28.48 24.47 28.27 24.47L15.06 24.47C14.84 24.47 14.67 24.29 14.67 24.07L14.67 24.07C14.67 23.86 14.84 23.68 15.06 23.68Z" />
				<path id="Контур 194" class="shp15" d="M38.69 26.7L40.16 26.64L41.6 26.58L41 26.7C41 26.7 40.19 26.84 39.42 26.9L37.95 26.99C37.95 26.99 37.13 27.06 36.99 27.52C36.99 27.52 36.87 27.81 36.93 28.12C36.97 28.28 37.04 28.43 37.15 28.55C37.41 28.93 38.26 28.71 38.26 28.71L39.67 28.3C40.41 28.09 41.22 27.93 41.22 27.93L41.82 27.84L40.46 28.28L39.06 28.73C38.47 28.97 37.1 29.17 37.1 29.17C35.95 29.35 35.67 28.82 35.67 28.82C35.58 28.68 35.53 28.53 35.5 28.37C35.43 28 35.42 27.91 35.48 27.76C35.48 27.76 35.67 27.18 36.71 26.96C36.71 26.96 38.06 26.67 38.69 26.7Z" />
				<path id="Контур 195" class="shp16" d="M37.95 26.99L39.42 26.9C40.19 26.84 41 26.7 41 26.7L41.87 26.52L42.12 27.79L41.22 27.93C41.22 27.93 40.41 28.09 39.67 28.3L38.26 28.71C38.26 28.71 37.41 28.93 37.15 28.55C37.04 28.43 36.97 28.28 36.93 28.12C36.87 27.81 36.99 27.52 36.99 27.52C37.13 27.06 37.95 26.99 37.95 26.99Z" />
				<path id="Контур 196" class="shp15" d="M53.88 26.67L52.41 26.61L50.97 26.55L51.57 26.67C51.57 26.67 52.38 26.8 53.15 26.86L54.62 26.96C54.62 26.96 55.44 27.03 55.59 27.49C55.59 27.49 55.7 27.78 55.64 28.09C55.6 28.25 55.53 28.4 55.42 28.52C55.16 28.9 54.31 28.68 54.31 28.68L52.91 28.27C52.16 28.06 51.35 27.9 51.35 27.9L50.75 27.81L52.12 28.25L53.52 28.7C54.1 28.94 55.47 29.14 55.47 29.14C56.62 29.32 56.91 28.79 56.91 28.79C56.99 28.65 57.05 28.5 57.07 28.34C57.14 27.97 57.15 27.88 57.1 27.74C57.1 27.74 56.9 27.15 55.86 26.93C55.86 26.93 54.51 26.64 53.88 26.67Z" />
				<path id="Контур 197" class="shp16" d="M54.62 26.96L53.15 26.86C52.38 26.81 51.57 26.67 51.57 26.67L50.7 26.49L50.46 27.76L51.35 27.9C51.35 27.9 52.16 28.05 52.9 28.27L54.31 28.68C54.31 28.68 55.16 28.9 55.42 28.52C55.53 28.4 55.6 28.25 55.64 28.09C55.7 27.78 55.59 27.48 55.59 27.48C55.44 27.03 54.62 26.96 54.62 26.96Z" />
				<path id="Контур 198" class="shp17" d="M39.25 25.71L41.21 26.14C41.78 26.2 44.05 26.6 44.97 26.86C49.16 28.04 52.32 28.07 52.32 28.07L52.66 26.82C52.66 26.82 48.42 25.35 46.64 24.92C45.07 24.54 42.05 22.98 39.42 22.91C38.2 22.87 37.26 24.71 39.25 25.71Z" />
				<path id="Контур 199" class="shp17" d="M53.51 25.73L51.54 26.15C50.98 26.21 48.7 26.6 47.79 26.86C43.59 28.03 40.44 28.06 40.44 28.06L40.1 26.8C40.1 26.8 44.35 25.34 46.12 24.92C47.69 24.54 50.72 22.99 53.35 22.92C54.57 22.89 55.5 24.73 53.51 25.73Z" />
				<path id="Прямоугольник 348" class="shp12" d="M44.21 17.3L48.35 17.3C50.29 17.3 51.86 18.87 51.86 20.82L51.86 20.82C51.86 22.76 50.29 24.33 48.35 24.33L44.21 24.33C42.26 24.33 40.69 22.76 40.69 20.82L40.69 20.82C40.69 18.87 42.26 17.3 44.21 17.3Z" />
				<path id="Контур 200" class="shp13" d="M40.78 24.11C40.87 24.25 41.03 24.34 41.2 24.34L51.37 24.34C51.65 24.34 51.87 24.11 51.87 23.83L51.87 17.81C51.87 17.69 51.83 17.57 51.75 17.48L40.78 24.11Z" />
				<path id="Прямоугольник 349" class="shp14" d="M40.95 24.31L51.61 24.31C51.79 24.31 51.93 24.45 51.93 24.63L51.93 24.63C51.93 24.8 51.79 24.95 51.61 24.95L40.95 24.95C40.78 24.95 40.64 24.8 40.64 24.63L40.64 24.63C40.64 24.45 40.78 24.31 40.95 24.31Z" />
				<path id="Контур 201" class="shp18" d="M24.5 6.55C24.4 6.98 24.42 7.37 24.64 7.42C24.87 7.47 25.09 7.15 25.18 6.72C25.28 6.29 25.17 5.91 24.95 5.86C24.73 5.81 24.59 6.12 24.5 6.55Z" />
				<path id="Контур 202" class="shp18" d="M18.56 6.56C18.66 6.99 18.64 7.39 18.41 7.43C18.19 7.48 17.97 7.17 17.87 6.74C17.78 6.31 17.88 5.92 18.11 5.87C18.33 5.82 18.47 6.14 18.56 6.56Z" />
				<path id="Контур 203" class="shp3" d="M24.66 7.08C24.66 7.14 24.65 7.2 24.65 7.27C24.63 7.5 24.6 7.74 24.57 7.99L24.34 9.29C24.34 9.29 24.24 9.67 23.96 9.8C23.96 9.8 22.97 10.41 22.12 10.66C22.12 10.66 21.8 10.79 21.58 10.8L21.58 10.8C21.46 10.79 21.34 10.77 21.22 10.73C21.11 10.7 21.03 10.66 21.03 10.66C20.18 10.41 19.19 9.8 19.19 9.8C19.07 9.74 18.98 9.63 18.92 9.52C18.86 9.42 18.82 9.31 18.8 9.2L18.58 7.99C18.54 7.68 18.52 7.38 18.5 7.1L18.5 7.1C18.07 1.03 21.48 2.49 21.58 2.54C21.68 2.49 25.08 1.03 24.66 7.08Z" />
				<path id="Контур 204" class="shp4" d="M24.72 7.17L24.65 7.27C24.65 7.27 24.62 5.77 24.53 5.4C24.53 5.4 24.32 4.56 23.99 4.39C23.99 4.39 24.28 3.35 23.53 3.01C23.53 3.01 22.63 3.97 21.15 3.96C21.15 3.96 20.13 4.05 19.2 3.37C19.2 3.37 18.98 3.76 19.16 4.26C19.16 4.26 18.56 4.93 18.48 5.75C18.48 5.75 18.45 6.82 18.5 7.1C18.5 7.1 18.44 7.07 18.23 6.84C18.07 6.65 18 6.4 17.94 6.15C17.76 5.39 17.76 4.22 17.92 3.59C17.92 3.59 18.15 2.55 18.35 2.46C18.35 2.46 17.89 0.98 17.99 0.59C17.99 0.59 18.26 1.32 19.16 1.23C19.16 1.23 18.78 0.67 18.86 0.07C18.86 0.07 19.55 0.61 20.28 0.47C20.28 0.47 20.75 0.42 21.05 0.3C21.18 0.24 21.31 0.2 21.44 0.18C21.96 0.08 23.06 -0.02 23.59 0.68C23.59 0.68 24.01 1.14 24.08 1.6C24.08 1.6 25.21 2.44 25.26 3.9C25.26 3.9 25.36 4.96 25.23 5.9C25.19 6.22 25.09 6.54 24.95 6.83L24.95 6.83C24.89 6.96 24.81 7.07 24.72 7.17L24.72 7.17Z" />
				<path id="Контур 205" class="shp5" d="M18.23 1.21C18.23 1.21 19.14 4.6 22.46 3.38C22.46 3.38 19.18 3.6 18.23 1.21Z" />
				<path id="Контур 206" class="shp5" d="M19.13 0.58C19.13 0.58 20.17 3.54 23.05 2.24C23.05 2.24 20.14 2.65 19.13 0.58Z" />
				<path id="Контур 207" fill-rule="evenodd" class="shp4" d="M24.64 7.27C24.62 7.5 24.6 7.74 24.57 7.99L24.33 9.29C24.33 9.29 24.23 9.67 23.96 9.8C23.96 9.8 22.97 10.41 22.12 10.66C22.12 10.66 21.8 10.79 21.58 10.79L21.57 10.79C21.45 10.79 21.33 10.77 21.22 10.73C21.11 10.7 21.03 10.66 21.03 10.66C20.18 10.41 19.19 9.8 19.19 9.8C19.06 9.74 18.97 9.62 18.92 9.52C18.86 9.42 18.82 9.31 18.8 9.2L18.58 7.99C18.54 7.68 18.51 7.38 18.49 7.1C18.87 7.4 20.01 8.9 20.01 8.9C20.15 9.26 20.27 9.55 20.27 9.55C20.16 8.76 20.39 8.54 20.39 8.54C20.48 8.44 20.69 8.36 20.9 8.31C21.33 8.2 21.79 8.2 22.22 8.31C22.43 8.36 22.63 8.44 22.72 8.54C22.72 8.54 22.96 8.76 22.84 9.55C22.84 9.55 22.97 9.26 23.1 8.9C23.1 8.9 24.27 7.57 24.64 7.27ZM22.67 9.01C22.67 9.01 22.56 8.55 21.57 8.55C20.61 8.55 20.44 9.01 20.44 9.01C20.44 9.62 20.6 9.94 20.72 10.1C20.81 10.2 20.93 10.27 21.07 10.27C21.4 10.27 21.56 9.96 21.56 9.96C21.56 9.96 21.72 10.27 22.05 10.27C22.18 10.27 22.31 10.2 22.39 10.1C22.52 9.94 22.67 9.62 22.67 9.01Z" />
				<path id="Эллипс 111" class="shp19" d="M16.25 48.74C14.18 48.74 12.5 47.06 12.5 44.99C12.5 42.92 14.18 41.24 16.25 41.24C18.32 41.24 20 42.92 20 44.99C20 47.06 18.32 48.74 16.25 48.74Z" />
				<path id="Эллипс 112" class="shp19" d="M35.75 49.02C33.68 49.02 32 47.34 32 45.27C32 43.2 33.68 41.52 35.75 41.52C37.82 41.52 39.5 43.2 39.5 45.27C39.5 47.34 37.82 49.02 35.75 49.02Z" />
				<path id="Эллипс 113" class="shp19" d="M55.75 48.74C53.68 48.74 52 47.06 52 44.99C52 42.92 53.68 41.24 55.75 41.24C57.82 41.24 59.5 42.92 59.5 44.99C59.5 47.06 57.82 48.74 55.75 48.74Z" />
			</g>
		</g>
	</g>
</svg>