<svg version="1.2" baseProfile="tiny-ps" xmlns="http://www.w3.org/2000/svg" viewBox="0 0 12 11" width="12" height="11">
	<title>Web 1920 – 4</title>
	<style>
		tspan { white-space:pre }
		.shp0 { fill: #373737 } 
	</style>
	<g id="Web 1920 – 4">
		<g id="Header">
			<g id="icon">
				<g id="multiple-users-silhouette">
					<path id="Контур 3" class="shp0" d="M7.28 2.15C7.82 2.49 8.2 3.06 8.27 3.73C8.49 3.84 8.74 3.89 9 3.89C9.95 3.89 10.72 3.12 10.72 2.17C10.72 1.22 9.95 0.45 9 0.45C8.06 0.45 7.29 1.21 7.28 2.15ZM6.15 5.67C7.1 5.67 7.87 4.9 7.87 3.95C7.87 3 7.1 2.23 6.15 2.23C5.2 2.23 4.43 3 4.43 3.95C4.43 4.9 5.2 5.67 6.15 5.67ZM6.88 5.79L5.42 5.79C4.2 5.79 3.21 6.78 3.21 8L3.21 9.78L3.22 9.81L3.34 9.85C4.5 10.21 5.51 10.33 6.34 10.33C7.96 10.33 8.9 9.87 8.96 9.84L9.07 9.78L9.08 9.78L9.08 8C9.08 6.78 8.1 5.79 6.88 5.79ZM9.73 4.01L8.28 4.01C8.26 4.59 8.02 5.11 7.62 5.49C8.7 5.81 9.5 6.81 9.5 8L9.5 8.55C10.93 8.5 11.75 8.09 11.81 8.06L11.92 8L11.93 8L11.93 6.22C11.93 5 10.94 4.01 9.73 4.01ZM3.13 3.89C3.46 3.89 3.78 3.8 4.04 3.63C4.13 3.08 4.42 2.6 4.84 2.27C4.85 2.24 4.85 2.21 4.85 2.17C4.85 1.22 4.08 0.45 3.13 0.45C2.18 0.45 1.41 1.22 1.41 2.17C1.41 3.12 2.18 3.89 3.13 3.89ZM4.67 5.49C4.28 5.12 4.04 4.6 4.02 4.02C3.97 4.02 3.91 4.01 3.86 4.01L2.4 4.01C1.18 4.01 0.19 5 0.19 6.22L0.19 8L0.2 8.03L0.32 8.07C1.25 8.36 2.08 8.5 2.8 8.54L2.8 8C2.8 6.81 3.59 5.81 4.67 5.49Z" />
				</g>
			</g>
		</g>
	</g>
</svg>