<svg version="1.2" baseProfile="tiny-ps" xmlns="http://www.w3.org/2000/svg" viewBox="0 0 10 10" width="10" height="10">
	<title>Web 1920 – 4</title>
	<style>
		tspan { white-space:pre }
		.shp0 { fill: #373737 } 
	</style>
	<g id="Web 1920 – 4">
		<g id="Header">
			<g id="icon">
				<g id="newspaper">
					<g id="Сгруппировать 77">
						<path id="Контур 211" fill-rule="evenodd" class="shp0" d="M9.47 2.97L9.47 8.38C9.47 9.13 8.87 9.74 8.12 9.74L1.35 9.74C0.61 9.74 0 9.13 0 8.38L0 0.6C0 0.42 0.15 0.26 0.34 0.26L7.1 0.26C7.29 0.26 7.44 0.42 7.44 0.6L7.44 2.63L9.13 2.63C9.32 2.63 9.47 2.78 9.47 2.97ZM2.37 2.29C2.37 2.48 2.52 2.63 2.71 2.63L4.74 2.63C4.92 2.63 5.07 2.48 5.07 2.29C5.07 2.11 4.92 1.96 4.74 1.96L2.71 1.96C2.52 1.96 2.37 2.11 2.37 2.29ZM6.09 8.04C6.09 7.86 5.94 7.71 5.75 7.71L1.69 7.71C1.51 7.71 1.35 7.86 1.35 8.04C1.35 8.23 1.51 8.38 1.69 8.38L5.75 8.38C5.94 8.38 6.09 8.23 6.09 8.04ZM6.09 6.69C6.09 6.5 5.94 6.35 5.75 6.35L1.69 6.35C1.51 6.35 1.35 6.5 1.35 6.69C1.35 6.88 1.51 7.03 1.69 7.03L5.75 7.03C5.94 7.03 6.09 6.88 6.09 6.69ZM6.09 5.34C6.09 5.15 5.94 5 5.75 5L1.69 5C1.51 5 1.35 5.15 1.35 5.34C1.35 5.53 1.51 5.68 1.69 5.68L5.75 5.68C5.94 5.68 6.09 5.53 6.09 5.34ZM6.09 3.99C6.09 3.8 5.94 3.65 5.75 3.65L1.69 3.65C1.51 3.65 1.35 3.8 1.35 3.99C1.35 4.17 1.51 4.32 1.69 4.32L5.75 4.32C5.94 4.32 6.09 4.17 6.09 3.99ZM8.8 8.38L8.8 3.31L7.44 3.31L7.44 8.38C7.44 8.76 7.75 9.06 8.12 9.06C8.49 9.06 8.8 8.76 8.8 8.38Z" />
					</g>
				</g>
			</g>
		</g>
	</g>
</svg>