<svg version="1.2" baseProfile="tiny-ps" xmlns="http://www.w3.org/2000/svg" viewBox="0 0 12 12" width="12" height="12">
	<title>Web 1920 – 4</title>
	<style>
		tspan { white-space:pre }
		.shp0 { fill: #373737 } 
	</style>
	<g id="Web 1920 – 4">
		<g id="Header">
			<g id="icon">
				<g id="repair">
					<path id="Контур 209" class="shp0" d="M11.2 7L11.2 4.46L10.09 4.46C10 4.14 9.87 3.84 9.71 3.55L10.5 2.76L8.71 0.97L7.92 1.75C7.63 1.59 7.32 1.47 7 1.37L7 0.26L4.47 0.26L4.47 1.37C4.15 1.47 3.84 1.59 3.55 1.75L2.77 0.97L0.98 2.76L1.76 3.55C1.6 3.84 1.47 4.14 1.38 4.46L0.27 4.46L0.27 7L1.38 7C1.47 7.31 1.6 7.62 1.76 7.91L0.98 8.7L2.77 10.49L3.55 9.7C3.76 9.82 3.97 9.91 4.19 9.99L4.19 8.25C3.33 7.72 2.81 6.78 2.81 5.76C2.81 4.58 3.51 3.52 4.6 3.06L5.05 2.87L5.05 5.43L5.74 5.84L6.42 5.43L6.42 2.87L6.87 3.06C7.96 3.52 8.66 4.58 8.66 5.76C8.66 6.78 8.14 7.71 7.28 8.25L7.28 9.99C7.5 9.91 7.72 9.82 7.92 9.7L8.71 10.49L10.5 8.7L9.71 7.91C9.87 7.62 10 7.31 10.09 7L11.2 7L11.2 7Z" />
					<path id="Контур 210" class="shp0" d="M6.64 7.87L6.81 7.78C7.56 7.38 8.02 6.61 8.02 5.76C8.02 5.01 7.66 4.32 7.07 3.9L7.07 5.79L5.74 6.59L4.41 5.79L4.41 3.9C3.81 4.32 3.45 5.01 3.45 5.76C3.45 6.61 3.91 7.38 4.66 7.78L4.83 7.87L4.83 11.2L6.64 11.2L6.64 7.87L6.64 7.87Z" />
				</g>
			</g>
		</g>
	</g>
</svg>