<svg version="1.2" baseProfile="tiny-ps" xmlns="http://www.w3.org/2000/svg" viewBox="0 0 11 11" width="11" height="11">
	<title>Web 1920 – 4</title>
	<style>
		tspan { white-space:pre }
		.shp0 { fill: #373737;stroke: #373737;stroke-width: 0.5 } 
	</style>
	<g id="Web 1920 – 4">
		<path id="share" fill-rule="evenodd" class="shp0" d="M8.96 4.57C9.12 4.73 9.21 4.94 9.21 5.17C9.21 5.4 9.12 5.61 8.96 5.77L5.81 8.92C5.67 9.06 5.53 9.13 5.39 9.13C5.2 9.13 4.98 8.98 4.98 8.58L4.98 6.66C3.61 6.76 2.42 7.67 1.96 8.97C1.92 9.07 1.83 9.13 1.74 9.13C1.64 9.13 1.55 9.07 1.52 8.97C1.37 8.55 1.29 8.11 1.29 7.65C1.29 6.61 1.7 5.62 2.44 4.87C3.12 4.18 4.01 3.77 4.98 3.71L4.98 1.76C4.98 1.36 5.2 1.21 5.39 1.21C5.53 1.21 5.67 1.28 5.81 1.42L8.96 4.57ZM8.63 5.44C8.7 5.37 8.74 5.27 8.74 5.17C8.74 5.07 8.7 4.97 8.63 4.9L5.48 1.75C5.47 1.73 5.45 1.72 5.44 1.71C5.44 1.73 5.44 1.74 5.44 1.76L5.44 3.93C5.44 4.06 5.34 4.16 5.21 4.16C3.31 4.18 1.76 5.75 1.76 7.65C1.76 7.84 1.77 8.02 1.8 8.2C2.08 7.71 2.46 7.28 2.92 6.94C3.59 6.45 4.38 6.19 5.2 6.18C5.21 6.18 5.21 6.18 5.21 6.18C5.27 6.18 5.33 6.21 5.37 6.25C5.41 6.29 5.44 6.35 5.44 6.41L5.44 8.58C5.44 8.6 5.44 8.62 5.44 8.63C5.45 8.62 5.47 8.61 5.48 8.59L8.63 5.44Z" />
	</g>
</svg>