<svg version="1.2" baseProfile="tiny-ps" xmlns="http://www.w3.org/2000/svg" viewBox="0 0 13 12" width="13" height="12">
	<title>Web 1920 – 4</title>
	<style>
		tspan { white-space:pre }
		.shp0 { fill: #373737 } 
	</style>
	<g id="Web 1920 – 4">
		<g id="Header">
			<g id="icon">
				<g id="shopping-cart">
					<g id="Сгруппировать 79">
						<g id="Сгруппировать 78">
							<path id="Эллипс 166" class="shp0" d="M4.97 11.33C4.26 11.33 3.69 10.77 3.69 10.06C3.69 9.36 4.26 8.79 4.97 8.79C5.67 8.79 6.24 9.36 6.24 10.06C6.24 10.77 5.67 11.33 4.97 11.33Z" />
						</g>
					</g>
					<g id="Сгруппировать 81">
						<g id="Сгруппировать 80">
							<path id="Контур 212" class="shp0" d="M12.81 1.75C12.76 1.7 12.71 1.65 12.61 1.65L2.93 1.65L2.67 0.33C2.62 0.23 2.52 0.12 2.42 0.12L0.89 0.12C0.74 0.12 0.63 0.23 0.63 0.38C0.63 0.53 0.74 0.63 0.89 0.63L2.21 0.63L3.44 6.85C3.64 7.67 4.35 8.28 5.22 8.28L11.08 8.28C11.23 8.28 11.34 8.18 11.34 8.02C11.34 7.87 11.23 7.77 11.08 7.77L5.22 7.77C4.81 7.77 4.41 7.56 4.2 7.21L11.64 6.19C11.74 6.19 11.85 6.09 11.85 5.98L12.86 1.91C12.86 1.91 12.86 1.81 12.81 1.75Z" />
						</g>
					</g>
					<g id="Сгруппировать 83">
						<g id="Сгруппировать 82">
							<path id="Эллипс 167" class="shp0" d="M10.06 11.33C9.36 11.33 8.79 10.77 8.79 10.06C8.79 9.36 9.36 8.79 10.06 8.79C10.77 8.79 11.34 9.36 11.34 10.06C11.34 10.77 10.77 11.33 10.06 11.33Z" />
						</g>
					</g>
				</g>
			</g>
		</g>
	</g>
</svg>