<svg version="1.2" baseProfile="tiny-ps" xmlns="http://www.w3.org/2000/svg" viewBox="0 0 12 13" width="12" height="13">
	<title>Web 1920 – 4</title>
	<style>
		tspan { white-space:pre }
		.shp0 { fill: #373737;stroke: #373737 } 
	</style>
	<g id="Web 1920 – 4">
		<path id="small-bookmark" fill-rule="evenodd" class="shp0" d="M9.28 2.38L9.28 10.28C9.28 10.34 9.24 10.41 9.16 10.43C9.14 10.44 9.11 10.45 9.09 10.45C9.04 10.45 8.99 10.43 8.95 10.4L5.75 7.73L2.55 10.4C2.49 10.45 2.41 10.46 2.34 10.43C2.26 10.41 2.22 10.34 2.22 10.28L2.22 2.38C2.22 2.29 2.3 2.21 2.41 2.21L9.09 2.21C9.19 2.21 9.28 2.29 9.28 2.38ZM8.89 2.56L2.61 2.56L2.61 9.87L5.61 7.37C5.65 7.34 5.7 7.32 5.75 7.32C5.8 7.32 5.85 7.34 5.89 7.37L8.89 9.87L8.89 2.56Z" />
	</g>
</svg>