<svg version="1.2" baseProfile="tiny-ps" xmlns="http://www.w3.org/2000/svg" viewBox="0 0 11 10" width="11" height="10">
	<title>Web 1920 – 4</title>
	<style>
		tspan { white-space:pre }
		.shp0 { fill: #373737 } 
	</style>
	<g id="Web 1920 – 4">
		<g id="Header">
			<g id="icon">
				<g id="suitcase">
					<path id="Контур 11" class="shp0" d="M6.83 2.4C6.59 2.4 6.39 2.2 6.39 1.96L6.39 1.31L4.64 1.31L4.64 1.96C4.64 2.2 4.45 2.4 4.21 2.4C3.97 2.4 3.77 2.2 3.77 1.96L3.77 1.31C3.77 0.82 4.16 0.43 4.64 0.43L6.39 0.43C6.87 0.43 7.26 0.82 7.26 1.31L7.26 1.96C7.26 2.2 7.07 2.4 6.83 2.4Z" />
					<path id="Контур 12" class="shp0" d="M5.83 6.68C5.75 6.71 5.64 6.73 5.52 6.73C5.4 6.73 5.29 6.71 5.18 6.67L0.28 5.04L0.28 8.37C0.28 9.03 0.82 9.57 1.48 9.57L9.56 9.57C10.22 9.57 10.76 9.03 10.76 8.37L10.76 5.04L5.83 6.68Z" />
					<path id="Контур 13" class="shp0" d="M10.76 3.05L10.76 4.05L5.62 5.76C5.59 5.78 5.55 5.78 5.52 5.78C5.48 5.78 5.45 5.78 5.41 5.76L0.28 4.05L0.28 3.05C0.28 2.39 0.82 1.85 1.48 1.85L9.56 1.85C10.22 1.85 10.76 2.39 10.76 3.05Z" />
					<path id="Контур 13 copy" class="shp0" d="M10.76 3.05L10.76 4.05L5.62 5.76C5.59 5.78 5.55 5.78 5.52 5.78C5.48 5.78 5.45 5.78 5.41 5.76L0.28 4.05L0.28 3.05C0.28 2.39 0.82 1.85 1.48 1.85L9.56 1.85C10.22 1.85 10.76 2.39 10.76 3.05Z" />
				</g>
			</g>
		</g>
	</g>
</svg>