<svg version="1.2" baseProfile="tiny-ps" xmlns="http://www.w3.org/2000/svg" viewBox="0 0 11 10" width="11" height="10">
	<title>Web 1920 – 4</title>
	<style>
		tspan { white-space:pre }
		.shp0 { fill: #373737 } 
	</style>
	<g id="Web 1920 – 4">
		<g id="thumbs-up">
			<path id="Контур 26" fill-rule="evenodd" class="shp0" d="M9.96 6.2C9.96 6.49 9.89 6.76 9.73 7.01C9.74 7.09 9.75 7.17 9.75 7.25C9.75 7.64 9.63 7.97 9.38 8.26C9.39 8.79 9.21 9.2 8.86 9.51C8.51 9.81 8.04 9.96 7.47 9.96L6.68 9.96C6.28 9.96 5.9 9.92 5.51 9.83C5.13 9.75 4.69 9.62 4.19 9.46C3.71 9.31 3.43 9.24 3.34 9.24L1.57 9.24C1.36 9.24 1.17 9.17 1.02 9.02C0.86 8.88 0.79 8.71 0.79 8.51L0.79 4.89C0.79 4.69 0.86 4.52 1.02 4.38C1.17 4.23 1.36 4.16 1.57 4.16L3.25 4.16C3.4 4.07 3.68 3.78 4.09 3.29C4.33 3 4.55 2.76 4.75 2.56C4.85 2.47 4.92 2.3 4.97 2.08C5.01 1.85 5.08 1.61 5.15 1.36C5.23 1.11 5.36 0.91 5.54 0.75C5.69 0.61 5.88 0.54 6.09 0.54C6.43 0.54 6.74 0.6 7.01 0.72C7.29 0.85 7.5 1.04 7.64 1.3C7.78 1.56 7.85 1.91 7.85 2.35C7.85 2.7 7.76 3.06 7.56 3.44L8.64 3.44C9.06 3.44 9.43 3.58 9.74 3.87C10.05 4.16 10.21 4.49 10.21 4.88C10.21 5.22 10.11 5.53 9.91 5.8C9.95 5.93 9.96 6.06 9.96 6.2ZM2.36 8.15C2.36 8.05 2.32 7.97 2.24 7.89C2.16 7.82 2.07 7.79 1.96 7.79C1.86 7.79 1.77 7.82 1.69 7.89C1.61 7.97 1.57 8.05 1.57 8.15C1.57 8.25 1.61 8.33 1.69 8.4C1.77 8.48 1.86 8.51 1.96 8.51C2.07 8.51 2.16 8.48 2.24 8.4C2.32 8.33 2.36 8.25 2.36 8.15ZM9.42 4.89C9.42 4.7 9.35 4.53 9.19 4.38C9.03 4.24 8.84 4.16 8.64 4.16L6.48 4.16C6.48 3.94 6.58 3.64 6.77 3.26C6.97 2.88 7.07 2.57 7.07 2.35C7.07 1.98 7 1.71 6.87 1.53C6.74 1.35 6.48 1.26 6.09 1.26C5.98 1.36 5.9 1.52 5.85 1.75C5.81 1.97 5.74 2.2 5.67 2.46C5.59 2.71 5.47 2.91 5.3 3.08C5.21 3.16 5.05 3.33 4.83 3.59C4.81 3.61 4.77 3.67 4.69 3.76C4.61 3.86 4.55 3.93 4.5 3.99C4.44 4.05 4.37 4.13 4.28 4.23C4.19 4.33 4.11 4.42 4.04 4.48C3.97 4.55 3.89 4.62 3.8 4.68C3.72 4.75 3.64 4.8 3.56 4.84C3.48 4.87 3.4 4.89 3.34 4.89L3.14 4.89L3.14 8.51L3.34 8.51C3.39 8.51 3.46 8.52 3.53 8.53C3.61 8.54 3.68 8.55 3.73 8.57C3.79 8.58 3.87 8.6 3.97 8.63C4.06 8.66 4.14 8.68 4.18 8.69C4.23 8.71 4.3 8.73 4.4 8.76C4.5 8.8 4.56 8.82 4.58 8.82C5.44 9.1 6.14 9.24 6.68 9.24L7.42 9.24C8.2 9.24 8.6 8.92 8.6 8.29C8.6 8.19 8.59 8.09 8.57 7.97C8.69 7.91 8.79 7.81 8.86 7.68C8.93 7.54 8.96 7.4 8.96 7.26C8.96 7.12 8.93 6.99 8.85 6.87C9.07 6.68 9.18 6.46 9.18 6.2C9.18 6.1 9.16 6 9.12 5.88C9.08 5.77 9.03 5.68 8.96 5.61C9.1 5.61 9.2 5.52 9.29 5.35C9.38 5.17 9.42 5.02 9.42 4.89Z" />
		</g>
	</g>
</svg>